<svg width="656" height="272" viewBox="0 0 656 272" fill="none" xmlns="http://www.w3.org/2000/svg">
<path d="M203.721 174.484V222.308H175.686V266.769H123.728V222.308H0.000976562V174.484L87.0958 5.23077H142.418L55.6968 174.484H123.728V112.462H175.686V174.484H203.721Z" fill="#010101"/>
<path d="M326.729 272C294.084 272 268.417 259.67 249.727 235.011C231.286 210.103 222.066 177.099 222.066 136C222.066 94.9011 231.286 62.022 249.727 37.3626C268.417 12.4542 294.084 0 326.729 0C359.623 0 385.291 12.4542 403.731 37.3626C422.172 62.022 431.392 94.9011 431.392 136C431.392 177.099 422.172 210.103 403.731 235.011C385.291 259.67 359.623 272 326.729 272ZM287.107 199.89C296.078 214.337 309.285 221.56 326.729 221.56C344.173 221.56 357.381 214.212 366.352 199.516C375.572 184.82 380.182 163.648 380.182 136C380.182 108.103 375.572 86.8059 366.352 72.1099C357.381 57.4139 344.173 50.0659 326.729 50.0659C309.285 50.0659 296.078 57.4139 287.107 72.1099C278.135 86.8059 273.65 108.103 273.65 136C273.65 163.897 278.135 185.194 287.107 199.89Z" fill="#010101"/>
<path d="M656.001 174.484V222.308H627.966V266.769H576.008V222.308H452.281V174.484L539.376 5.23077H594.698L507.977 174.484H576.008V112.462H627.966V174.484H656.001Z" fill="#010101"/>
</svg>
