<svg width="1920" height="193" viewBox="0 0 1920 193" fill="none" xmlns="http://www.w3.org/2000/svg">
<path d="M107.659 91.8204C123.255 84.9908 135.077 71.5845 135.077 50.5898C135.077 22.5125 112.69 0 70.1798 0H0V188.7H73.1983C118.476 188.7 140.108 164.164 140.108 135.834C140.108 115.092 128.789 98.903 107.659 91.8204ZM40.7496 34.9069H69.4252C86.7815 34.9069 96.3401 44.0131 96.3401 56.4076C96.3401 68.5491 87.0331 78.4142 68.6706 78.4142H40.7496V34.9069ZM70.1798 153.793H40.7496V107.503H70.9345C88.5423 107.503 100.113 116.609 100.113 130.522C100.113 143.928 89.8 153.793 70.1798 153.793Z" fill="#F9F9F9"/>
<path d="M170.723 188.7H288.444V151.769H211.725V110.539H281.904V76.3906H211.725V37.1835H288.444V0H170.723V188.7Z" fill="#F9F9F9"/>
<path d="M492.556 188.7L421.37 0H374.08L303.9 188.7H346.662L362.761 142.663H432.941L449.542 188.7H492.556ZM397.725 43.0013L421.37 108.768H374.08L397.725 43.0013Z" fill="#F9F9F9"/>
<path d="M582.708 193C631.255 193 661.44 160.623 661.44 114.333V0H620.187V114.333C620.187 140.387 605.849 155.311 582.708 155.311C560.069 155.311 546.486 140.387 546.486 114.586V0H505.485V114.333C505.485 160.623 534.663 193 582.708 193Z" fill="#F9F9F9"/>
<path d="M739.587 188.7H780.336V37.6894H835.172V0H684.499V37.6894H739.587V188.7Z" fill="#F9F9F9"/>
<path d="M909.545 188.7H950.295V113.321L1019.47 0H975.701L931.429 76.6435H930.675L885.901 0H839.869L909.545 113.574V188.7Z" fill="#F9F9F9"/>
<path d="M1073.28 57.1664H1074.03L1114.53 188.7H1149.5L1190.25 56.6606H1191.25L1207.1 188.7H1246.34L1219.42 0H1172.13L1133.4 126.221H1132.89L1093.4 0H1044.85L1017.94 188.7H1056.93L1073.28 57.1664Z" fill="#F9F9F9"/>
<path d="M1445.66 188.7L1374.47 0H1327.18L1257 188.7H1299.77L1315.86 142.663H1386.04L1402.65 188.7H1445.66ZM1350.83 43.0013L1374.47 108.768H1327.18L1350.83 43.0013Z" fill="#F9F9F9"/>
<path d="M1628.24 0H1589.25V121.163H1589L1506.24 0H1466.5V188.7H1505.74V65.5138H1505.99L1589.51 188.7H1628.24V0Z" fill="#F9F9F9"/>
<path d="M1668.91 188.7H1709.91V0H1668.91V188.7Z" fill="#F9F9F9"/>
<path d="M1920 188.7L1848.81 0H1801.52L1731.34 188.7H1774.11L1790.2 142.663H1860.38L1876.99 188.7H1920ZM1825.17 43.0013L1848.81 108.768H1801.52L1825.17 43.0013Z" fill="#F9F9F9"/>
</svg>
