<svg width="1920" height="236" viewBox="0 0 1920 236" fill="none" xmlns="http://www.w3.org/2000/svg">
<path d="M118.928 236C186.032 236 237.857 187.297 237.857 117.85C237.857 48.4026 186.032 0 118.928 0C52.4244 0 0 48.4026 0 117.85C0 187.297 52.1248 236 118.928 236ZM118.928 176.474C91.6677 176.474 65.9049 155.429 65.9049 117.85C65.9049 80.5707 91.6677 59.5261 118.928 59.5261C145.89 59.5261 171.952 80.5707 171.952 117.85C171.952 155.429 145.89 176.474 118.928 176.474Z" fill="#F9F9F9"/>
<path d="M341.091 5.7121H265.6V230.288H341.091C414.185 230.288 465.112 185.794 465.112 118.15C465.112 50.507 414.185 5.7121 341.091 5.7121ZM330.905 64.9376H343.487C377.338 64.9376 399.207 84.1784 399.207 118.15C399.207 151.822 377.338 171.062 343.487 171.062H330.905V64.9376Z" fill="#F9F9F9"/>
<path d="M493.201 230.288H558.507V5.7121H493.201V230.288Z" fill="#F9F9F9"/>
<path d="M802.551 5.7121H740.541V124.163H740.241L659.658 5.7121H597.347V230.288H659.358V109.732H659.658L740.241 230.288H802.551V5.7121Z" fill="#F9F9F9"/>
<path d="M889.255 230.288H954.561V64.9376H1015.97V5.7121H827.544V64.9376H889.255V230.288Z" fill="#F9F9F9"/>
<path d="M1117.02 0.901917C1061.9 0.901917 1031.05 33.0701 1031.05 72.4535C1031.05 116.046 1069.09 131.679 1093.06 140.397C1111.33 147.011 1126.61 151.822 1126.61 162.645C1126.61 171.062 1117.32 178.578 1097.25 178.578C1073.59 178.578 1049.02 168.056 1032.84 154.828V215.557C1049.32 226.68 1075.98 235.098 1105.04 235.098C1161.36 235.098 1193.41 203.531 1193.41 160.841C1193.41 113.039 1152.67 98.9096 1122.71 88.3873C1105.04 82.0739 1095.15 78.4663 1095.15 70.6497C1095.15 63.1338 1104.14 57.4216 1121.82 57.4216C1141.29 57.4216 1165.25 64.3363 1179.33 74.2573V16.535C1163.16 7.21528 1141.29 0.901917 1117.02 0.901917Z" fill="#F9F9F9"/>
<path d="M1330.07 236C1397.17 236 1449 187.297 1449 117.85C1449 48.4026 1397.17 0 1330.07 0C1263.57 0 1211.14 48.4026 1211.14 117.85C1211.14 187.297 1263.27 236 1330.07 236ZM1330.07 176.474C1302.81 176.474 1277.05 155.429 1277.05 117.85C1277.05 80.5707 1302.81 59.5261 1330.07 59.5261C1357.03 59.5261 1383.09 80.5707 1383.09 117.85C1383.09 155.429 1357.03 176.474 1330.07 176.474Z" fill="#F9F9F9"/>
<path d="M1684.27 5.7121H1616.57L1565.94 161.442L1513.81 5.7121H1445.81L1530.59 230.288H1601.29L1684.27 5.7121Z" fill="#F9F9F9"/>
<path d="M1801.07 236C1868.17 236 1920 187.297 1920 117.85C1920 48.4026 1868.17 0 1801.07 0C1734.57 0 1682.14 48.4026 1682.14 117.85C1682.14 187.297 1734.27 236 1801.07 236ZM1801.07 176.474C1773.81 176.474 1748.05 155.429 1748.05 117.85C1748.05 80.5707 1773.81 59.5261 1801.07 59.5261C1828.03 59.5261 1854.1 80.5707 1854.1 117.85C1854.1 155.429 1828.03 176.474 1801.07 176.474Z" fill="#F9F9F9"/>
</svg>
