<svg width="34" height="35" viewBox="0 0 34 35" fill="none" xmlns="http://www.w3.org/2000/svg">
<path d="M17.1547 21.3098C19.1084 21.3098 20.6921 19.726 20.6921 17.7723C20.6921 15.8186 19.1084 14.2349 17.1547 14.2349C15.201 14.2349 13.6172 15.8186 13.6172 17.7723C13.6172 19.726 15.201 21.3098 17.1547 21.3098Z" fill="url(#paint0_linear_1_143)"/>
<path d="M17.1547 0.927002C7.85141 0.927002 0.30957 8.46884 0.30957 17.7721C0.30957 27.0754 7.85141 34.6173 17.1547 34.6173C26.458 34.6173 33.9998 27.0754 33.9998 17.7721C33.9998 8.46884 26.458 0.927002 17.1547 0.927002ZM27.5622 22.0535C27.4813 23.655 27.0313 25.2343 25.8642 26.389C24.6858 27.5546 23.099 27.989 21.4821 28.069H12.8274C11.2103 27.989 9.62372 27.5549 8.4453 26.389C7.27813 25.2343 6.82817 23.655 6.74731 22.0535V13.4908C6.82817 11.8893 7.2782 10.31 8.4453 9.15524C9.62372 7.98956 11.2105 7.55522 12.8274 7.47524H21.482C23.0991 7.55522 24.6857 7.98936 25.8641 9.15524C27.0313 10.31 27.4812 11.8893 27.5621 13.4908L27.5622 22.0535Z" fill="url(#paint1_linear_1_143)"/>
<path d="M21.3725 9.42593C19.2644 9.36812 15.0451 9.36812 12.937 9.42593C11.84 9.45605 10.5963 9.72914 9.81471 10.564C9.0025 11.4318 8.69558 12.4802 8.66445 13.6531C8.60974 15.7117 8.66445 21.8905 8.66445 21.8905C8.7001 23.0633 9.0025 24.1118 9.81471 24.9796C10.5963 25.8148 11.84 26.0876 12.937 26.1177C15.0451 26.1755 19.2644 26.1755 21.3725 26.1177C22.4695 26.0876 23.7132 25.8145 24.4948 24.9796C25.307 24.1118 25.6139 23.0634 25.645 21.8905V13.6531C25.6139 12.4802 25.307 11.4318 24.4948 10.564C23.7129 9.72887 22.4692 9.45605 21.3725 9.42593ZM17.1545 23.2549C16.07 23.2549 15.0099 22.9333 14.1082 22.3308C13.2065 21.7283 12.5038 20.872 12.0888 19.8701C11.6738 18.8682 11.5652 17.7657 11.7767 16.7021C11.9883 15.6385 12.5105 14.6615 13.2773 13.8947C14.0442 13.1279 15.0212 12.6056 16.0848 12.3941C17.1484 12.1825 18.2509 12.2911 19.2528 12.7061C20.2547 13.1211 21.111 13.8239 21.7135 14.7256C22.316 15.6273 22.6376 16.6874 22.6376 17.7718C22.6376 19.226 22.0599 20.6207 21.0316 21.6489C20.0033 22.6772 18.6087 23.2549 17.1545 23.2549ZM22.6609 13.4205C22.444 13.4205 22.232 13.3561 22.0517 13.2356C21.8714 13.115 21.7309 12.9438 21.6479 12.7434C21.565 12.543 21.5433 12.3225 21.5856 12.1098C21.628 11.8971 21.7324 11.7017 21.8858 11.5484C22.0392 11.395 22.2346 11.2906 22.4473 11.2483C22.66 11.206 22.8805 11.2278 23.0809 11.3108C23.2812 11.3938 23.4525 11.5343 23.573 11.7147C23.6935 11.895 23.7578 12.107 23.7578 12.3239C23.7578 12.4679 23.7294 12.6106 23.6743 12.7436C23.6191 12.8767 23.5383 12.9976 23.4365 13.0994C23.3346 13.2013 23.2137 13.282 23.0806 13.3371C22.9475 13.3922 22.8049 13.4206 22.6609 13.4205Z" fill="url(#paint2_linear_1_143)"/>
<defs>
<linearGradient id="paint0_linear_1_143" x1="17.1547" y1="14.2349" x2="17.1547" y2="21.3098" gradientUnits="userSpaceOnUse">
<stop stop-color="#D220AB"/>
<stop offset="1" stop-color="#5139E4"/>
</linearGradient>
<linearGradient id="paint1_linear_1_143" x1="17.1547" y1="0.927002" x2="17.1547" y2="34.6173" gradientUnits="userSpaceOnUse">
<stop stop-color="#D220AB"/>
<stop offset="1" stop-color="#5139E4"/>
</linearGradient>
<linearGradient id="paint2_linear_1_143" x1="17.1426" y1="9.38257" x2="17.1426" y2="26.1611" gradientUnits="userSpaceOnUse">
<stop stop-color="#D220AB"/>
<stop offset="1" stop-color="#5139E4"/>
</linearGradient>
</defs>
</svg>
