<svg width="33" height="33" viewBox="0 0 33 33" fill="none" xmlns="http://www.w3.org/2000/svg">
<g clip-path="url(#clip0_1_139)">
<path d="M16.5041 0H16.4959C7.39819 0 0 7.40025 0 16.5C0 20.1094 1.16325 23.4548 3.14119 26.1711L1.08488 32.3008L7.42706 30.2734C10.0361 32.0018 13.1484 33 16.5041 33C25.6018 33 33 25.5977 33 16.5C33 7.40231 25.6018 0 16.5041 0Z" fill="#5CC553"/>
<path d="M26.1051 23.3C25.7071 24.4241 24.1272 25.3563 22.867 25.6286C22.0049 25.8121 20.8788 25.9586 17.0879 24.3869C12.2389 22.3781 9.11632 17.4508 8.87295 17.1311C8.63989 16.8114 6.91357 14.522 6.91357 12.1543C6.91357 9.78651 8.11601 8.63357 8.6007 8.13857C8.99876 7.73226 9.6567 7.54663 10.2878 7.54663C10.492 7.54663 10.6756 7.55694 10.8406 7.56519C11.3253 7.58582 11.5686 7.61469 11.8883 8.37988C12.2864 9.33894 13.2558 11.7067 13.3713 11.9501C13.4888 12.1934 13.6064 12.5234 13.4414 12.8431C13.2867 13.1731 13.1506 13.3196 12.9072 13.6001C12.6638 13.8806 12.4328 14.0951 12.1894 14.3962C11.9667 14.6581 11.7151 14.9386 11.9956 15.4233C12.2761 15.8977 13.2454 17.4796 14.6727 18.7501C16.5145 20.3898 18.0078 20.9137 18.5419 21.1364C18.94 21.3014 19.4144 21.2623 19.7052 20.9529C20.0744 20.5548 20.5302 19.8948 20.9943 19.2451C21.3243 18.779 21.7409 18.7213 22.1781 18.8863C22.6236 19.0409 24.9811 20.2063 25.4658 20.4476C25.9504 20.6909 26.2701 20.8064 26.3877 21.0106C26.5032 21.2148 26.5032 22.1739 26.1051 23.3Z" fill="white"/>
</g>
<defs>
<clipPath id="clip0_1_139">
<rect width="33" height="33" fill="white"/>
</clipPath>
</defs>
</svg>
