<svg width="26" height="26" viewBox="0 0 26 26" fill="none" xmlns="http://www.w3.org/2000/svg">
<g clip-path="url(#clip0_1_125)">
<path d="M13 0C7.70398 0 3.39551 4.30847 3.39551 9.60452C3.39551 11.348 4.17743 13.2232 4.2102 13.3023C4.46274 13.9017 4.96104 14.8328 5.32037 15.3785L11.9057 25.3565C12.1752 25.7655 12.574 26 13 26C13.426 26 13.8249 25.7655 14.0944 25.3571L20.6803 15.3785C21.0401 14.8328 21.5379 13.9017 21.7904 13.3023C21.8232 13.2237 22.6045 11.3486 22.6045 9.60452C22.6045 4.30847 18.2961 0 13 0ZM20.7486 12.8638C20.5232 13.4011 20.0593 14.2672 19.7368 14.7565L13.1509 24.735C13.0209 24.9322 12.9797 24.9322 12.8497 24.735L6.26387 14.7565C5.94127 14.2672 5.47743 13.4006 5.252 12.8633C5.2424 12.8401 4.52545 11.1141 4.52545 9.60452C4.52545 4.93164 8.32715 1.12994 13 1.12994C17.6729 1.12994 21.4746 4.93164 21.4746 9.60452C21.4746 11.1164 20.756 12.8469 20.7486 12.8638Z" fill="#D30000"/>
<path d="M12.9998 4.52026C10.1958 4.52026 7.91504 6.80162 7.91504 9.60501C7.91504 12.4084 10.1958 14.6898 12.9998 14.6898C15.8037 14.6898 18.0845 12.4084 18.0845 9.60501C18.0845 6.80162 15.8037 4.52026 12.9998 4.52026ZM12.9998 13.5598C10.8196 13.5598 9.04498 11.7858 9.04498 9.60501C9.04498 7.42422 10.8196 5.65021 12.9998 5.65021C15.18 5.65021 16.9546 7.42422 16.9546 9.60501C16.9546 11.7858 15.18 13.5598 12.9998 13.5598Z" fill="#D30000"/>
</g>
<defs>
<clipPath id="clip0_1_125">
<rect width="26" height="26" fill="white"/>
</clipPath>
</defs>
</svg>
