<svg width="34" height="33" viewBox="0 0 34 33" fill="none" xmlns="http://www.w3.org/2000/svg">
<g clip-path="url(#clip0_1_132)">
<path d="M17 33C26.3888 33 34 25.6127 34 16.5C34 7.3873 26.3888 0 17 0C7.61116 0 0 7.3873 0 16.5C0 25.6127 7.61116 33 17 33Z" fill="#339DFF"/>
<g clip-path="url(#clip1_1_132)">
<path d="M15.1257 18.7403L14.8376 22.6729C15.2498 22.6729 15.4283 22.5011 15.6423 22.2947L17.5746 20.5024L21.5785 23.3483C22.3128 23.7455 22.8302 23.5363 23.0283 22.6926L25.6565 10.7398L25.6572 10.7391C25.8901 9.6855 25.2646 9.2735 24.5492 9.53197L9.10094 15.2725C8.04663 15.6697 8.06259 16.2401 8.92171 16.4986L12.8712 17.6909L22.0451 12.1195C22.4768 11.842 22.8694 11.9955 22.5465 12.273L15.1257 18.7403Z" fill="white"/>
</g>
</g>
<defs>
<clipPath id="clip0_1_132">
<rect width="34" height="33" fill="white"/>
</clipPath>
<clipPath id="clip1_1_132">
<rect width="17.4146" height="16.9024" fill="white" transform="translate(8.29248 8.04883)"/>
</clipPath>
</defs>
</svg>
