<svg width="23" height="23" viewBox="0 0 23 23" fill="none" xmlns="http://www.w3.org/2000/svg">
<g clip-path="url(#clip0_1_102)">
<path d="M11.4996 0C5.15918 0 0 5.15876 0 11.5C0 17.8412 5.15918 23 11.4996 23C17.8412 23 22.9996 17.8412 22.9996 11.5C22.9996 5.15876 17.8412 0 11.4996 0ZM11.4996 21.4667C6.0041 21.4667 1.53325 16.9959 1.53325 11.5C1.53325 6.0041 6.00451 1.53325 11.4996 1.53325C16.9959 1.53325 21.4663 6.0041 21.4663 11.5C21.4663 16.9959 16.9963 21.4667 11.4996 21.4667Z" fill="#D30000"/>
<path d="M17.1949 10.6675H12.2663V4.15062C12.2663 3.72713 11.923 3.38379 11.4999 3.38379C11.0772 3.38379 10.7339 3.72754 10.7339 4.15062V12.2003H17.1949C17.618 12.2003 17.9614 11.8574 17.9609 11.4339C17.9609 11.0108 17.6172 10.6675 17.1949 10.6675Z" fill="#D30000"/>
</g>
<defs>
<clipPath id="clip0_1_102">
<rect width="23" height="23" fill="white"/>
</clipPath>
</defs>
</svg>
