<svg width="140" height="64" viewBox="0 0 140 64" fill="none" xmlns="http://www.w3.org/2000/svg">
<path d="M5.16554 26.3187L5.16695 26.3196C6.89002 27.4933 8.85009 28.0788 11.0391 28.0788C14.0214 28.0788 16.4857 27.0818 18.4109 25.0817C20.3335 23.0841 21.2917 20.5865 21.2917 17.6071C21.2917 14.6277 20.3335 12.1301 18.4109 10.1326C16.4857 8.13244 14.0214 7.1355 11.0391 7.1355C9.59543 7.1355 8.22404 7.40942 6.92716 7.95792C5.65474 8.48204 4.55467 9.23182 3.62958 10.2069C2.97183 10.9002 2.42202 11.6756 1.98012 12.532V0.814453V0.564453H1.73012H1H0.75V0.814453V27.4637V27.7137H1H1.65711H1.90406L1.90709 27.4668L1.966 22.6655C2.71857 24.1459 3.78555 25.3648 5.16554 26.3187ZM44.3735 18.0032H44.6235V17.7532V17.7523V17.7515V17.7506V17.7497V17.7489V17.748V17.7472V17.7463V17.7455V17.7446V17.7438V17.743V17.7421V17.7413V17.7404V17.7396V17.7387V17.7379V17.7371V17.7362V17.7354V17.7345V17.7337V17.7329V17.732V17.7312V17.7304V17.7295V17.7287V17.7279V17.727V17.7262V17.7254V17.7246V17.7237V17.7229V17.7221V17.7213V17.7204V17.7196V17.7188V17.718V17.7171V17.7163V17.7155V17.7147V17.7139V17.7131V17.7122V17.7114V17.7106V17.7098V17.709V17.7082V17.7074V17.7066V17.7057V17.7049V17.7041V17.7033V17.7025V17.7017V17.7009V17.7001V17.6993V17.6985V17.6977V17.6969V17.6961V17.6953V17.6945V17.6937V17.6929V17.6921V17.6913V17.6905V17.6898V17.689V17.6882V17.6874V17.6866V17.6858V17.685V17.6842V17.6835V17.6827V17.6819V17.6811V17.6803V17.6795V17.6788V17.678V17.6772V17.6764V17.6756V17.6749V17.6741V17.6733V17.6726V17.6718V17.671V17.6702V17.6695V17.6687V17.6679V17.6672V17.6664V17.6656V17.6649V17.6641V17.6633V17.6626V17.6618V17.6611V17.6603V17.6595V17.6588V17.658V17.6573V17.6565V17.6558V17.655V17.6542V17.6535V17.6527V17.652V17.6512V17.6505V17.6497V17.649V17.6482V17.6475V17.6468V17.646V17.6453V17.6445V17.6438V17.643V17.6423V17.6416V17.6408V17.6401V17.6394V17.6386V17.6379V17.6371V17.6364V17.6357V17.635V17.6342V17.6335V17.6328V17.632V17.6313V17.6306V17.6299V17.6291V17.6284V17.6277V17.627V17.6262V17.6255V17.6248V17.6241V17.6234V17.6226V17.6219V17.6212V17.6205V17.6198V17.6191V17.6184V17.6176V17.6169V17.6162V17.6155V17.6148V17.6141V17.6134V17.6127V17.612V17.6113V17.6106V17.6099V17.6092V17.6085V17.6078V17.6071V17.6064V17.6057V17.605V17.6043V17.6036V17.6029V17.6022V17.6015V17.6008V17.6001V17.5994V17.5988V17.5981V17.5974V17.5967V17.596V17.5953V17.5946V17.594V17.5933V17.5926V17.5919V17.5912V17.5905V17.5899V17.5892V17.5885V17.5878V17.5872V17.5865V17.5858V17.5851V17.5845V17.5838V17.5831V17.5825V17.5818V17.5811V17.5805V17.5798V17.5791V17.5785V17.5778V17.5771V17.5765V17.5758V17.5752V17.5745V17.5738V17.5732V17.5725V17.5719V17.5712V17.5706V17.5699V17.5693V17.5686V17.568V17.5673V17.5667V17.566V17.5654V17.5647V17.5641V17.5634V17.5628V17.5621V17.5615V17.5609V17.5602V17.5596V17.5589V17.5583V17.5577V17.557V17.5564V17.5558V17.5551V17.5545V17.5539V17.5532V17.5526V17.552V17.5513V17.5507V17.5501V17.5495V17.5488V17.5482V17.5476V17.547V17.5463V17.5457V17.5451V17.5445V17.5439V17.5432V17.5426V17.542V17.5414V17.5408V17.5402V17.5396V17.5389V17.5383V17.5377V17.5371V17.5365V17.5359V17.5353V17.5347V17.5341V17.5335V17.5329V17.5323V17.5317V17.5311V17.5305V17.5299V17.5293V17.5287V17.5281V17.5275V17.5269V17.5263V17.5257V17.5251V17.5245V17.5239V17.5233V17.5227V17.5221V17.5216V17.521V17.5204V17.5198V17.5192V17.5186V17.5181V17.5175V17.5169V17.5163V17.5157V17.5152V17.5146V17.514V17.5134V17.5128V17.5123V17.5117V17.5111V17.5106V17.51V17.5094V17.5088V17.5083V17.5077V17.5071V17.5066V17.506V17.5054V17.5049V17.5043V17.5038V17.5032V17.5026V17.5021V17.5015V17.501V17.5004V17.4998V17.4993V17.4987V17.4982V17.4976V17.4971V17.4965V17.496V17.4954V17.4949V17.4943V17.4938V17.4932V17.4927V17.4921V17.4916V17.4911V17.4905V17.49V17.4894V17.4889V17.4884V17.4878V17.4873V17.4867V17.4862V17.4857V17.4851V17.4846V17.4841V17.4836V17.483V17.4825V17.482V17.4814V17.4809V17.4804V17.4799V17.4793V17.4788V17.4783V17.4778V17.4772V17.4767V17.4762V17.4757V17.4752V17.4747V17.4741V17.4736V17.4731V17.4726V17.4721V17.4716V17.4711V17.4705V17.47V17.4695V17.469V17.4685V17.468V17.4675V17.467V17.4665V17.466V17.4655V17.465V17.4645V17.464V17.4635V17.463V17.4625V17.462V17.4615V17.461V17.4605V17.46V17.4595V17.459V17.4586V17.4581V17.4576V17.4571V17.4566V17.4561V17.4556V17.4551V17.4547V17.4542V17.4537V17.4532V17.4527V17.4523V17.4518V17.4513V17.4508V17.4504V17.4499V17.4494V17.4489V17.4485V17.448V17.4475V17.447V17.4466V17.4461V17.4456V17.4452V17.4447V17.4442V17.4438V17.4433V17.4429V17.4424V17.4419V17.4415V17.441V17.4406V17.4401V17.4396V17.4392V17.4387V17.4383V17.4378V17.4374V17.4369V17.4365V17.436V17.4356V17.4351V17.4347V17.4342V17.4338V17.4333V17.4329V17.4324V17.432V17.4316V17.4311V17.4307V17.4302V17.4298V17.4294V17.4289V17.4285V17.4281V17.4276V17.4272V17.4268V17.4263V17.4259V17.4255V17.425V17.4246C44.6235 14.5186 43.6899 12.0706 41.8174 10.0979C39.9661 8.12183 37.5987 7.1355 34.736 7.1355C31.8957 7.1355 29.4943 8.13512 27.5478 10.1314L27.5467 10.1326C25.6245 12.1297 24.6659 14.615 24.6659 17.5706C24.6659 20.55 25.6241 23.0591 27.5456 25.0806L27.5467 25.0817C29.4697 27.0795 31.8719 28.0788 34.736 28.0788C36.7754 28.0788 38.5882 27.5682 40.1657 26.5416C41.7434 25.5148 43.0123 24.0045 43.9776 22.0244L44.1529 21.6648H43.7529H42.9863H42.8338L42.764 21.8004C41.9301 23.4205 40.827 24.6631 39.4568 25.5372C38.089 26.4097 36.5181 26.8487 34.736 26.8487C32.2457 26.8487 30.1694 25.986 28.4901 24.2594C26.865 22.5885 26.0009 20.5083 25.9032 18.0032H44.3735ZM40.8017 10.7748L40.803 10.7761C42.4006 12.3509 43.2745 14.3563 43.4177 16.8095H25.9109C26.0776 14.4048 26.9619 12.4104 28.5601 10.8119C30.2395 9.15651 32.2928 8.32911 34.736 8.32911C37.1554 8.32911 39.1716 9.14472 40.8017 10.7748ZM67.4366 7.50056H67.1882L67.1866 7.74903L67.1572 12.5458C66.7144 11.6844 66.1626 10.9049 65.5019 10.2082C64.6001 9.23163 63.4992 8.48175 62.2031 7.95791C60.9289 7.40873 59.5451 7.1355 58.0546 7.1355C55.1434 7.1355 52.6933 8.13365 50.7216 10.1303L50.7205 10.1314C48.7731 12.1288 47.802 14.6268 47.802 17.6071C47.802 20.5638 48.7734 23.0609 50.7194 25.0817L50.7216 25.084C52.6933 27.0806 55.1434 28.0788 58.0546 28.0788C60.291 28.0788 62.2643 27.494 63.9647 26.3187C65.3404 25.3678 66.4051 24.1534 67.1573 22.6792L67.1866 27.4652L67.1882 27.7137H67.4366H68.0937H68.3437V27.4637V7.75056V7.50056H68.0937H67.4366ZM65.9399 22.3784L65.9392 22.3797C65.1824 23.775 64.12 24.8731 62.7483 25.6775C61.3782 26.4567 59.828 26.8487 58.0911 26.8487C55.502 26.8487 53.3528 25.9727 51.6257 24.2223C49.8978 22.4469 49.0322 20.2475 49.0322 17.6071C49.0322 14.9665 49.8979 12.7799 51.6251 11.0291L51.6262 11.0279C53.3536 9.25319 55.5027 8.36562 58.0911 8.36562C60.7057 8.36562 62.8541 9.24222 64.556 10.9914L64.5572 10.9926C66.2584 12.7175 67.1136 14.9154 67.1136 17.6071C67.1136 19.3695 66.7211 20.9581 65.9399 22.3784ZM75.1074 7.50056H74.8574V7.75056V19.2134C74.8574 21.891 75.615 24.051 77.1533 25.6649C78.6929 27.2802 80.7584 28.0788 83.3212 28.0788C85.8841 28.0788 87.9496 27.2802 89.4892 25.6649C91.0274 24.051 91.785 21.891 91.785 19.2134V7.75056V7.50056H91.535H90.8049H90.5549V7.75056V19.1404C90.5549 21.5518 89.8995 23.4321 88.6142 24.8108C87.3314 26.187 85.5773 26.8852 83.3212 26.8852C81.0651 26.8852 79.3111 26.187 78.0282 24.8108C76.743 23.4321 76.0875 21.5518 76.0875 19.1404V7.75056V7.50056H75.8375H75.1074ZM127.562 7.50056H127.403L127.336 7.64416L119.16 25.0277L110.519 7.63931L110.45 7.50056H110.295H109.492H109.088L109.268 7.86184L118.487 26.4092L117.26 29.0726C117.26 29.0729 117.26 29.0731 117.26 29.0734C116.413 30.8643 115.584 32.0202 114.786 32.5901L114.783 32.5922C114.012 33.1591 112.95 33.4562 111.572 33.4562H110.149H109.899V33.7062V34.3998V34.6498H110.149H111.609C112.675 34.6498 113.584 34.5017 114.328 34.1947C115.105 33.9089 115.818 33.3816 116.471 32.6287C117.124 31.8745 117.756 30.8297 118.37 29.5039C118.37 29.5038 118.37 29.5037 118.37 29.5036L128.555 7.85699L128.723 7.50056H128.329H127.562ZM17.5046 24.2588C15.803 25.9837 13.6544 26.8487 11.0391 26.8487C8.44992 26.8487 6.30068 25.9727 4.57363 24.2223C2.84577 22.4468 1.98012 20.2475 1.98012 17.6071C1.98012 14.9665 2.84596 12.767 4.57419 10.9914C6.30161 9.21669 8.45069 8.32911 11.0391 8.32911C13.6536 8.32911 15.8021 9.20572 17.504 10.9549C19.2064 12.7046 20.0616 14.9154 20.0616 17.6071C20.0616 20.2986 19.2066 22.5092 17.5046 24.2588Z" fill="#D30000" stroke="#D30000" stroke-width="0.5"/>
<path d="M95.291 8.69421H99.6042V21.6593V27.8288V28.0788H99.8542H100.584H100.834V27.8288V21.6593V8.69421H107.886H108.136V8.44421V7.7506V7.5006H107.886H100.834V1.90967V1.65967H100.584H99.8542H99.6042V1.90967V7.5006H95.291H95.041V7.7506V8.44421V8.69421H95.291Z" fill="#D30000" stroke="#D30000" stroke-width="0.5"/>
<path d="M90.6611 26.6771V26.9271H90.9111H91.5299H91.7799V26.6771V17.396V17.146H91.5299H90.9111H90.6611V17.396V26.6771Z" fill="#D30000" stroke="#D30000" stroke-width="0.5"/>
<path d="M26.3641 39.7851C28.675 39.7851 30.5596 40.609 32.0177 42.2568C33.5033 43.9046 34.2461 46.0193 34.2461 48.6009V62.5662H28.2211V49.5896C28.2211 46.5686 27.0931 45.0581 24.8372 45.0581C23.9568 45.0581 23.1865 45.2778 22.5262 45.7172C21.8934 46.1292 21.412 46.7471 21.0818 47.571C20.7517 48.3949 20.5866 49.3836 20.5866 50.5371V62.5662H14.6854V49.5896C14.6854 46.5686 13.5987 45.0581 11.4253 45.0581C10.0497 45.0581 8.97673 45.5387 8.20641 46.4999C7.43608 47.4612 7.05092 48.8069 7.05092 50.5371V62.5662H1.02588V40.3206H5.23515L6.34937 43.0807C7.17472 42.0646 8.16514 41.2681 9.32063 40.6914C10.5036 40.0872 11.7416 39.7851 13.0347 39.7851C14.4378 39.7851 15.7033 40.1009 16.8313 40.7326C17.9593 41.3642 18.8396 42.2431 19.4724 43.3691C19.7475 42.9846 20.0364 42.6413 20.339 42.3392C20.6416 42.0096 20.9718 41.7213 21.3294 41.4741C21.6871 41.1994 22.0585 40.966 22.4437 40.7738C22.8288 40.5541 23.2277 40.3755 23.6404 40.2382C24.0806 40.1009 24.5208 39.991 24.961 39.9087C25.4287 39.8263 25.8964 39.7851 26.3641 39.7851Z" fill="white"/>
<path d="M57.7469 40.2794H62.2451V62.525H57.4993L57.0041 60.5476C54.9683 62.3053 52.561 63.1841 49.7823 63.1841C46.4259 63.1841 43.6335 62.0718 41.4051 59.8473C39.2041 57.5952 38.1037 54.7802 38.1037 51.4022C38.1037 48.0516 39.2041 45.2641 41.4051 43.0395C43.6335 40.815 46.4259 39.7027 49.7823 39.7027C52.616 39.7027 55.0508 40.609 57.0867 42.4216L57.7469 40.2794ZM45.9032 55.7689C47.0587 56.9224 48.5031 57.4991 50.2363 57.4991C51.997 57.4991 53.4551 56.9224 54.6106 55.7689C55.7661 54.6154 56.3439 53.1599 56.3439 51.4022C56.3439 49.6445 55.7661 48.1889 54.6106 47.0355C53.4551 45.882 52.0108 45.3053 50.2775 45.3053C49.1221 45.3053 48.0766 45.5799 47.1412 46.1292C46.2333 46.651 45.518 47.3788 44.9953 48.3125C44.4726 49.2188 44.2112 50.2487 44.2112 51.4022C44.2112 53.1599 44.7752 54.6154 45.9032 55.7689Z" fill="white"/>
<path d="M80.5443 39.7851C83.0753 39.7851 85.0699 40.6364 86.5281 42.3392C88.0137 44.0145 88.7565 46.2665 88.7565 49.0952V62.5662H82.7315V50.0427C82.7315 46.7196 81.4384 45.0581 78.8523 45.0581C77.8344 45.0581 76.9403 45.2915 76.1699 45.7584C75.4271 46.2253 74.8494 46.8982 74.4367 47.777C74.0516 48.6558 73.859 49.6857 73.859 50.8667V62.5662H67.8339V40.3206H71.9607L73.1574 43.0807C73.5701 42.5589 74.0378 42.1057 74.5605 41.7213C75.1107 41.3093 75.7022 40.966 76.335 40.6914C76.9678 40.3893 77.6281 40.1696 78.3158 40.0322C79.0312 39.8675 79.774 39.7851 80.5443 39.7851Z" fill="white"/>
<path d="M94.0645 37.3545V31.752H100.09V37.3545H94.0645ZM94.0645 62.5662V40.3206H100.09V62.5662H94.0645Z" fill="white"/>
<path d="M123.865 40.2794H128.363V62.525H123.617L123.122 60.5476C121.086 62.3053 118.679 63.1841 115.9 63.1841C112.544 63.1841 109.752 62.0718 107.523 59.8473C105.322 57.5952 104.222 54.7802 104.222 51.4022C104.222 48.0516 105.322 45.2641 107.523 43.0395C109.752 40.815 112.544 39.7027 115.9 39.7027C118.734 39.7027 121.169 40.609 123.205 42.4216L123.865 40.2794ZM112.021 55.7689C113.177 56.9224 114.621 57.4991 116.354 57.4991C118.115 57.4991 119.573 56.9224 120.729 55.7689C121.884 54.6154 122.462 53.1599 122.462 51.4022C122.462 49.6445 121.884 48.1889 120.729 47.0355C119.573 45.882 118.129 45.3053 116.396 45.3053C115.24 45.3053 114.195 45.5799 113.259 46.1292C112.351 46.651 111.636 47.3788 111.113 48.3125C110.591 49.2188 110.329 50.2487 110.329 51.4022C110.329 53.1599 110.893 54.6154 112.021 55.7689Z" fill="white"/>
<path d="M136.951 25.2026H136.936C136.129 25.2026 135.355 25.5692 134.784 26.2216L134.163 26.9322L133.541 26.2216C132.97 25.5692 132.196 25.2026 131.389 25.2026H131.374C128.822 25.2026 127.404 28.5769 128.998 30.8552L131.893 34.4895L134.163 38.2369L136.433 34.4895L139.327 30.8552C140.922 28.5769 139.503 25.2026 136.951 25.2026Z" fill="#D30000"/>
</svg>
