<svg width="118" height="52" viewBox="0 0 118 52" fill="none" xmlns="http://www.w3.org/2000/svg">
<path d="M8.76344 5.46121C11.2297 5.46121 13.2614 6.27586 14.8584 7.90517C16.4757 9.51437 17.2843 11.546 17.2843 14C17.2843 16.454 16.4757 18.4957 14.8584 20.125C13.2614 21.7342 11.2297 22.5388 8.76344 22.5388C6.47908 22.5388 4.5485 21.7945 2.97168 20.306L2.54716 22.1466H0V0H3.36589V7.36207C4.88205 6.09483 6.68124 5.46121 8.76344 5.46121ZM4.63947 17.8017C5.67046 18.8276 6.95414 19.3405 8.49053 19.3405C10.0269 19.3405 11.3005 18.8376 12.3113 17.8319C13.322 16.806 13.8274 15.5287 13.8274 14C13.8274 12.4713 13.322 11.204 12.3113 10.1983C11.3005 9.17241 10.0269 8.65948 8.49053 8.65948C7.47975 8.65948 6.55994 8.8908 5.7311 9.35345C4.92248 9.81609 4.28569 10.4598 3.82074 11.2845C3.35578 12.0891 3.1233 12.9943 3.1233 14C3.1233 15.5086 3.62869 16.7759 4.63947 17.8017Z" fill="#D30000"/>
<path d="M36.4327 14.0302C36.4327 14.3319 36.4125 14.704 36.3721 15.1466H23.0905C23.2926 16.454 23.8385 17.4899 24.7279 18.2543C25.6376 19.0187 26.7596 19.4009 28.0938 19.4009C28.7407 19.4009 29.3472 19.3103 29.9132 19.1293C30.4793 18.9282 30.9745 18.6566 31.3991 18.3147C31.8438 17.9526 32.2077 17.5201 32.4907 17.0172H36.0385C35.3916 18.7471 34.3606 20.1049 32.9456 21.0905C31.5305 22.056 29.9132 22.5388 28.0938 22.5388C25.6882 22.5388 23.6767 21.7241 22.0595 20.0948C20.4625 18.4655 19.664 16.4339 19.664 14C19.664 11.5661 20.4625 9.53448 22.0595 7.90517C23.6767 6.27586 25.6882 5.46121 28.0938 5.46121C29.7313 5.46121 31.1868 5.85345 32.4604 6.63793C33.734 7.4023 34.7144 8.43822 35.4017 9.74569C36.0891 11.033 36.4327 12.4612 36.4327 14.0302ZM28.0938 8.47845C26.8405 8.47845 25.769 8.83046 24.8796 9.53448C24.0103 10.2385 23.4342 11.204 23.1511 12.431H33.0669C32.8647 11.6063 32.5311 10.9023 32.0662 10.319C31.6012 9.71552 31.0251 9.26293 30.3378 8.96121C29.6706 8.63937 28.9227 8.47845 28.0938 8.47845Z" fill="#D30000"/>
<path d="M53.7128 5.85345H56.3206V22.1466H53.5915L53.2579 20.1552C51.6811 21.7443 49.7101 22.5388 47.3449 22.5388C44.8988 22.5388 42.857 21.7241 41.2196 20.0948C39.6023 18.4655 38.7937 16.4339 38.7937 14C38.7937 11.546 39.6023 9.51437 41.2196 7.90517C42.857 6.27586 44.8988 5.46121 47.3449 5.46121C49.7505 5.46121 51.7417 6.2658 53.3186 7.875L53.7128 5.85345ZM43.7364 17.8319C44.7674 18.8376 46.0511 19.3405 47.5875 19.3405C49.144 19.3405 50.4176 18.8376 51.4082 17.8319C52.419 16.806 52.9244 15.5287 52.9244 14C52.9244 12.4511 52.419 11.1739 51.4082 10.1681C50.4176 9.16236 49.144 8.65948 47.5875 8.65948C46.5767 8.65948 45.6569 8.8908 44.828 9.35345C44.0194 9.81609 43.3826 10.4598 42.9177 11.2845C42.4527 12.0891 42.2202 12.9943 42.2202 14C42.2202 15.5287 42.7256 16.806 43.7364 17.8319Z" fill="#D30000"/>
<path d="M68.307 22.5388C66.0631 22.5388 64.2639 21.875 62.9095 20.5474C61.555 19.2198 60.8778 17.4598 60.8778 15.2672V5.85345H64.2437V14.7845C64.2437 16.2126 64.6076 17.329 65.3354 18.1336C66.0631 18.9382 67.0537 19.3405 68.307 19.3405C69.5806 19.3405 70.5813 18.9382 71.309 18.1336C72.0368 17.3089 72.4007 16.1925 72.4007 14.7845V5.85345H75.7666V15.2672C75.7666 17.4598 75.0893 19.2198 73.7349 20.5474C72.3805 21.875 70.5712 22.5388 68.307 22.5388Z" fill="#D30000"/>
<path d="M87.5877 19.0991H89.4374V22.1466H86.9509C85.7582 22.1466 84.7272 21.9152 83.8579 21.4526C82.9886 20.9899 82.3215 20.3262 81.8566 19.4612C81.3916 18.5762 81.1591 17.5402 81.1591 16.3534V8.71983H78.2178V8.08621L83.9186 2.05172H84.4947V5.85345H89.3464V8.71983H84.525V16.0819C84.525 17.0474 84.7878 17.7917 85.3134 18.3147C85.839 18.8376 86.5971 19.0991 87.5877 19.0991Z" fill="#D30000"/>
<path d="M104.392 5.85345H108L100.48 22.4483C99.5297 24.5201 98.5593 25.9583 97.5688 26.7629C96.5984 27.5876 95.2945 28 93.6571 28H91.9893V24.9828H93.3842C94.4556 24.9828 95.244 24.7716 95.7494 24.3491C96.2548 23.9267 96.8107 23.0517 97.4172 21.7241L97.7811 20.9698L90.6551 5.85345H94.3242L99.5095 17.2284L104.392 5.85345Z" fill="#D30000"/>
<path d="M21.5316 32.0824C23.4934 32.0824 25.0932 32.7818 26.3311 34.1807C27.5922 35.5796 28.2228 37.3748 28.2228 39.5663V51.4217H23.108V40.4057C23.108 37.8411 22.1505 36.5588 20.2354 36.5588C19.488 36.5588 18.8341 36.7453 18.2735 37.1183C17.7364 37.468 17.3276 37.9926 17.0474 38.6921C16.7671 39.3915 16.627 40.2308 16.627 41.21V51.4217H11.6173V40.4057C11.6173 37.8411 10.6948 36.5588 8.84973 36.5588C7.68197 36.5588 6.77112 36.9668 6.11718 37.7828C5.46323 38.5988 5.13626 39.7412 5.13626 41.21V51.4217H0.0214844V32.537H3.59482L4.54071 34.8801C5.24136 34.0175 6.08215 33.3414 7.06306 32.8518C8.06733 32.3389 9.11831 32.0824 10.216 32.0824C11.4071 32.0824 12.4815 32.3505 13.439 32.8868C14.3966 33.423 15.1439 34.1691 15.6811 35.1249C15.9147 34.7985 16.1599 34.5071 16.4168 34.2507C16.6737 33.9709 16.954 33.7261 17.2576 33.5163C17.5612 33.2831 17.8765 33.0849 18.2035 32.9217C18.5304 32.7352 18.8691 32.5837 19.2194 32.4671C19.5931 32.3505 19.9668 32.2573 20.3405 32.1873C20.7375 32.1174 21.1345 32.0824 21.5316 32.0824Z" fill="black"/>
<path d="M48.1731 32.5021H51.9917V51.3868H47.9629L47.5425 49.7081C45.8143 51.2003 43.7707 51.9463 41.4118 51.9463C38.5625 51.9463 36.1919 51.0021 34.3002 49.1136C32.4318 47.2018 31.4976 44.8121 31.4976 41.9444C31.4976 39.1001 32.4318 36.7336 34.3002 34.8452C36.1919 32.9567 38.5625 32.0125 41.4118 32.0125C43.8174 32.0125 45.8843 32.7818 47.6126 34.3206L48.1731 32.5021ZM38.1187 45.6514C39.0997 46.6306 40.3258 47.1202 41.7972 47.1202C43.2919 47.1202 44.5297 46.6306 45.5106 45.6514C46.4916 44.6722 46.982 43.4365 46.982 41.9444C46.982 40.4523 46.4916 39.2166 45.5106 38.2374C44.5297 37.2582 43.3036 36.7686 41.8322 36.7686C40.8513 36.7686 39.9638 37.0018 39.1697 37.468C38.399 37.911 37.7918 38.5289 37.348 39.3215C36.9043 40.0909 36.6824 40.9652 36.6824 41.9444C36.6824 43.4365 37.1612 44.6722 38.1187 45.6514Z" fill="black"/>
<path d="M67.5262 32.0824C69.6749 32.0824 71.3682 32.8052 72.606 34.2507C73.8672 35.6728 74.4978 37.5846 74.4978 39.986V51.4217H69.383V40.7904C69.383 37.9693 68.2853 36.5588 66.0899 36.5588C65.2258 36.5588 64.4667 36.757 63.8128 37.1533C63.1822 37.5496 62.6917 38.1209 62.3414 38.8669C62.0144 39.613 61.8509 40.4873 61.8509 41.4898V51.4217H56.7362V32.537H60.2394L61.2554 34.8801C61.6057 34.4372 62.0028 34.0525 62.4465 33.7261C62.9136 33.3764 63.4157 33.0849 63.9529 32.8518C64.4901 32.5953 65.0506 32.4088 65.6345 32.2922C66.2417 32.1524 66.8723 32.0824 67.5262 32.0824Z" fill="black"/>
<path d="M79.0038 30.0191V25.2629H84.1186V30.0191H79.0038ZM79.0038 51.4217V32.537H84.1186V51.4217H79.0038Z" fill="black"/>
<path d="M104.302 32.5021H108.121V51.3868H104.092L103.672 49.7081C101.943 51.2003 99.8997 51.9463 97.5408 51.9463C94.6915 51.9463 92.3209 51.0021 90.4292 49.1136C88.5607 47.2018 87.6265 44.8121 87.6265 41.9444C87.6265 39.1001 88.5607 36.7336 90.4292 34.8452C92.3209 32.9567 94.6915 32.0125 97.5408 32.0125C99.9464 32.0125 102.013 32.7818 103.742 34.3206L104.302 32.5021ZM94.2477 45.6514C95.2286 46.6306 96.4548 47.1202 97.9262 47.1202C99.4209 47.1202 100.659 46.6306 101.64 45.6514C102.621 44.6722 103.111 43.4365 103.111 41.9444C103.111 40.4523 102.621 39.2166 101.64 38.2374C100.659 37.2582 99.4326 36.7686 97.9612 36.7686C96.9803 36.7686 96.0928 37.0018 95.2987 37.468C94.528 37.911 93.9207 38.5289 93.477 39.3215C93.0332 40.0909 92.8114 40.9652 92.8114 41.9444C92.8114 43.4365 93.2902 44.6722 94.2477 45.6514Z" fill="black"/>
<path d="M115.412 20.5767H115.399C114.713 20.5767 114.056 20.8955 113.572 21.4628L113.044 22.0808L112.517 21.4628C112.032 20.8955 111.375 20.5767 110.69 20.5767H110.677C108.511 20.5767 107.307 23.5112 108.66 25.4926L111.117 28.6534L113.044 31.9124L114.972 28.6534L117.429 25.4926C118.782 23.5112 117.578 20.5767 115.412 20.5767Z" fill="#D30000"/>
</svg>
