<svg width="76" height="100" viewBox="0 0 76 100" fill="none" xmlns="http://www.w3.org/2000/svg">
<path d="M34.1458 98C5.76667 56.8417 0.5 52.6208 0.5 37.5C0.5 16.7875 17.2875 0 38 0C58.7125 0 75.5 16.7875 75.5 37.5C75.5 52.6208 70.2333 56.8333 41.8542 97.9833C40.9958 99.2083 39.5917 100 38 100C36.4083 100 35.0042 99.2083 34.1583 98L34.15 97.9833L34.1458 98ZM38 53.125C46.625 53.125 53.6208 46.1292 53.6208 37.5C53.6208 28.8708 46.625 21.875 37.9958 21.875C29.3667 21.875 22.3708 28.8708 22.3708 37.5C22.3708 46.1292 29.3667 53.125 37.9958 53.125H38Z" fill="#D30000"/>
</svg>
