<svg width="20" height="10" viewBox="0 0 20 10" fill="none" xmlns="http://www.w3.org/2000/svg">
<path d="M19.8678 4.68115L15.3225 0.158108C15.1592 -0.0316151 14.8722 -0.0537319 14.6816 0.108783C14.4909 0.271258 14.4687 0.556796 14.632 0.746519C14.6472 0.764205 14.6638 0.780724 14.6816 0.795845L18.4497 4.54997H0.454523C0.203512 4.54997 0 4.75248 0 5.00229C0 5.25211 0.203512 5.45458 0.454523 5.45458H18.4497L14.6816 9.20416C14.4909 9.36663 14.4687 9.65217 14.632 9.84189C14.7953 10.0316 15.0822 10.0537 15.2729 9.89122C15.2907 9.87606 15.3073 9.85958 15.3225 9.84189L19.8678 5.31885C20.0441 5.1425 20.0441 4.85758 19.8678 4.68115Z" fill="#2F2F2F"/>
</svg>
